{"asset":{"generator":"3D Builder","version":"2.0"},"scene":0,"scenes":[{"nodes":[0]}],"nodes":[{"mesh":0,"matrix":[1.8748518228530884,0,0,0,0,-2.2349975381530385E-7,-1.8748515844345093,0,0,1.8748515844345093,-2.2349975381530385E-7,0,-0.0069996695965528488,0.0016256006201729178,0.006777468603104353,1]}],"meshes":[{"primitives":[{"attributes":{"POSITION":0,"TEXCOORD_0":1},"mode":4,"indices":2,"material":0}]}],"materials":[{"pbrMetallicRoughness":{"baseColorFactor":[1,1,1,1],"metallicFactor":0,"roughnessFactor":1,"baseColorTexture":{"index":0,"texCoord":0}},"alphaMode":"OPAQUE"}],"textures":[{"source":0,"sampler":0}],"images":[{"uri":"GitHub.png"}],"samplers":[{"magFilter":9729,"wrapS":10497,"wrapT":10497}],"accessors":[{"bufferView":0,"byteOffset":0,"count":92,"componentType":5126,"type":"VEC3","min":[0,0,0],"max":[0.016001999378204346,0.015494000166654587,0.0016256000380963087]},{"bufferView":1,"byteOffset":0,"count":92,"componentType":5126,"type":"VEC2"},{"bufferView":2,"byteOffset":0,"count":540,"componentType":5125,"type":"SCALAR"}],"bufferViews":[{"buffer":0,"byteOffset":0,"byteLength":1104,"byteStride":12,"target":34962},{"buffer":0,"byteOffset":1104,"byteLength":736,"byteStride":8,"target":34962},{"buffer":0,"byteOffset":1840,"byteLength":2160,"target":34963}],"buffers":[{"byteLength":4000,"uri":"GitHub.bin"}]}