{"asset":{"generator":"3D Builder","version":"2.0"},"scene":0,"scenes":[{"nodes":[0]}],"nodes":[{"children":[1,2]},{"mesh":0,"matrix":[0.23576301336288452,0,0,0,0,-2.810514132534081E-8,-0.23576298356056213,0,0,0.23576298356056213,-2.810514132534081E-8,0,0.04862610250711441,-5.7966831334965718E-9,-0.048626095056533813,1]},{"mesh":1,"matrix":[0.23576301336288452,0,0,0,0,-2.810514132534081E-8,-0.23576298356056213,0,0,0.23576298356056213,-2.810514132534081E-8,0,0.04862610250711441,-5.7966831334965718E-9,-0.048626095056533813,1]}],"meshes":[{"primitives":[{"attributes":{"POSITION":0,"TEXCOORD_0":1},"mode":4,"indices":2,"material":0}]},{"primitives":[{"attributes":{"POSITION":3,"TEXCOORD_0":4},"mode":4,"indices":5,"material":0}]}],"materials":[{"pbrMetallicRoughness":{"baseColorFactor":[1,1,1,1],"metallicFactor":0,"roughnessFactor":1,"baseColorTexture":{"index":0,"texCoord":0}},"alphaMode":"OPAQUE"}],"textures":[{"source":0,"sampler":0}],"images":[{"uri":"Email.png"}],"samplers":[{"magFilter":9729,"wrapS":10497,"wrapT":10497}],"accessors":[{"bufferView":0,"byteOffset":0,"count":336,"componentType":5126,"type":"VEC3","min":[0,0,0],"max":[0.12725399434566498,0.12725399434566498,0.01300480030477047]},{"bufferView":1,"byteOffset":0,"count":336,"componentType":5126,"type":"VEC2"},{"bufferView":2,"byteOffset":0,"count":2016,"componentType":5125,"type":"SCALAR"},{"bufferView":3,"byteOffset":0,"count":38,"componentType":5126,"type":"VEC3","min":[0.05054599791765213,0.051054000854492188,0],"max":[0.069087997078895569,0.077723994851112366,0.01300480030477047]},{"bufferView":4,"byteOffset":0,"count":38,"componentType":5126,"type":"VEC2"},{"bufferView":5,"byteOffset":0,"count":216,"componentType":5125,"type":"SCALAR"}],"bufferViews":[{"buffer":0,"byteOffset":0,"byteLength":4032,"byteStride":12,"target":34962},{"buffer":0,"byteOffset":4032,"byteLength":2688,"byteStride":8,"target":34962},{"buffer":0,"byteOffset":6720,"byteLength":8064,"target":34963},{"buffer":0,"byteOffset":14784,"byteLength":456,"byteStride":12,"target":34962},{"buffer":0,"byteOffset":15240,"byteLength":304,"byteStride":8,"target":34962},{"buffer":0,"byteOffset":15544,"byteLength":864,"target":34963}],"buffers":[{"byteLength":16408,"uri":"Email.bin"}]}