{"asset":{"generator":"3D Builder","version":"2.0"},"scene":0,"scenes":[{"nodes":[0]}],"nodes":[{"children":[1,2,3]},{"mesh":0,"matrix":[0.21912847459316254,0,0,0,0,-2.6122149776597325E-8,-0.21912844479084015,0,0,0.18600036203861237,-2.2172972791167922E-8,0,0.062675707042217255,0.00026715514832176268,-0.053453020751476288,1]},{"mesh":1,"matrix":[0.21912847459316254,0,0,0,0,-2.6122149776597325E-8,-0.21912844479084015,0,0,0.18600036203861237,-2.2172972791167922E-8,0,0.062675707042217255,0.00026715514832176268,-0.053453020751476288,1]},{"mesh":2,"matrix":[0.21912847459316254,0,0,0,0,-2.6122149776597325E-8,-0.21912844479084015,0,0,0.18600036203861237,-2.2172972791167922E-8,0,0.062675707042217255,0.00026715514832176268,-0.053453020751476288,1]}],"meshes":[{"primitives":[{"attributes":{"POSITION":0,"TEXCOORD_0":1},"mode":4,"indices":2,"material":0}]},{"primitives":[{"attributes":{"POSITION":3,"TEXCOORD_0":4},"mode":4,"indices":5,"material":0}]},{"primitives":[{"attributes":{"POSITION":6,"TEXCOORD_0":7},"mode":4,"indices":8,"material":0}]}],"materials":[{"pbrMetallicRoughness":{"baseColorFactor":[1,1,1,1],"metallicFactor":0,"roughnessFactor":1,"baseColorTexture":{"index":0,"texCoord":0}},"alphaMode":"OPAQUE"}],"textures":[{"source":0,"sampler":0}],"images":[{"uri":"LinkedIn.png"}],"samplers":[{"magFilter":9729,"wrapS":10497,"wrapT":10497}],"accessors":[{"bufferView":0,"byteOffset":0,"count":160,"componentType":5126,"type":"VEC3","min":[0,0.001015997608192265,0],"max":[0.13563600182533264,0.13690599799156189,0.01612900011241436]},{"bufferView":1,"byteOffset":0,"count":160,"componentType":5126,"type":"VEC2"},{"bufferView":2,"byteOffset":0,"count":984,"componentType":5125,"type":"SCALAR"},{"bufferView":3,"byteOffset":0,"count":72,"componentType":5126,"type":"VEC3","min":[0.1422400027513504,0,0],"max":[0.16052798926830292,0.01854199543595314,0.01612900011241436]},{"bufferView":4,"byteOffset":0,"count":72,"componentType":5126,"type":"VEC2"},{"bufferView":5,"byteOffset":0,"count":432,"componentType":5125,"type":"SCALAR"},{"bufferView":6,"byteOffset":0,"count":48,"componentType":5126,"type":"VEC3","min":[0.14808198809623718,0.0043180016800761223,0],"max":[0.1551939845085144,0.014224004000425339,0.01612900011241436]},{"bufferView":7,"byteOffset":0,"count":48,"componentType":5126,"type":"VEC2"},{"bufferView":8,"byteOffset":0,"count":288,"componentType":5125,"type":"SCALAR"}],"bufferViews":[{"buffer":0,"byteOffset":0,"byteLength":1920,"byteStride":12,"target":34962},{"buffer":0,"byteOffset":1920,"byteLength":1280,"byteStride":8,"target":34962},{"buffer":0,"byteOffset":3200,"byteLength":3936,"target":34963},{"buffer":0,"byteOffset":7136,"byteLength":864,"byteStride":12,"target":34962},{"buffer":0,"byteOffset":8000,"byteLength":576,"byteStride":8,"target":34962},{"buffer":0,"byteOffset":8576,"byteLength":1728,"target":34963},{"buffer":0,"byteOffset":10304,"byteLength":576,"byteStride":12,"target":34962},{"buffer":0,"byteOffset":10880,"byteLength":384,"byteStride":8,"target":34962},{"buffer":0,"byteOffset":11264,"byteLength":1152,"target":34963}],"buffers":[{"byteLength":12416,"uri":"LinkedIn.bin"}]}